<svg width="80" height="80" viewBox="0 0 80 80" fill="none" xmlns="http://www.w3.org/2000/svg">
<circle opacity="0.1" cx="40" cy="40" r="40" fill="#09CC66"/>
<g clip-path="url(#clip0_1_1608)">
<path d="M36.2063 47.5C36.0577 48.5429 35.5378 49.4971 34.7421 50.1874C33.9464 50.8778 32.9284 51.2578 31.875 51.2578C30.8216 51.2578 29.8036 50.8778 29.0079 50.1874C28.2122 49.4971 27.6924 48.5429 27.5438 47.5H26.25V32.5C26.25 32.1685 26.3817 31.8505 26.6161 31.6161C26.8505 31.3817 27.1685 31.25 27.5 31.25H45C45.3315 31.25 45.6495 31.3817 45.8839 31.6161C46.1183 31.8505 46.25 32.1685 46.25 32.5V35H50L53.75 40.07V47.5H51.2062C51.0576 48.5429 50.5378 49.4971 49.7421 50.1874C48.9464 50.8778 47.9284 51.2578 46.875 51.2578C45.8216 51.2578 44.8036 50.8778 44.0079 50.1874C43.2122 49.4971 42.6924 48.5429 42.5438 47.5H36.2063ZM43.75 33.75H28.75V43.8125C29.2432 43.309 29.8508 42.9321 30.5209 42.7139C31.1911 42.4957 31.9041 42.4426 32.5992 42.5592C33.2943 42.6758 33.951 42.9587 34.5133 43.3836C35.0756 43.8086 35.5269 44.3631 35.8288 45H42.9212C43.1313 44.5588 43.4125 44.1575 43.75 43.8125V33.75ZM46.25 41.25H51.25V40.8938L48.74 37.5H46.25V41.25ZM46.875 48.75C47.3724 48.75 47.8495 48.5524 48.2013 48.2006C48.553 47.8489 48.7506 47.3718 48.7506 46.8744C48.7506 46.3769 48.553 45.8999 48.2013 45.5481C47.8495 45.1964 47.3724 44.9987 46.875 44.9987C46.3776 44.9987 45.9005 45.1964 45.5487 45.5481C45.197 45.8999 44.9994 46.3769 44.9994 46.8744C44.9994 47.3718 45.197 47.8489 45.5487 48.2006C45.9005 48.5524 46.3776 48.75 46.875 48.75ZM33.75 46.875C33.75 46.6288 33.7015 46.385 33.6073 46.1575C33.513 45.93 33.3749 45.7233 33.2008 45.5492C33.0267 45.3751 32.82 45.237 32.5925 45.1427C32.365 45.0485 32.1212 45 31.875 45C31.6288 45 31.385 45.0485 31.1575 45.1427C30.93 45.237 30.7233 45.3751 30.5492 45.5492C30.3751 45.7233 30.237 45.93 30.1427 46.1575C30.0485 46.385 30 46.6288 30 46.875C30 47.3723 30.1975 47.8492 30.5492 48.2008C30.9008 48.5525 31.3777 48.75 31.875 48.75C32.3723 48.75 32.8492 48.5525 33.2008 48.2008C33.5525 47.8492 33.75 47.3723 33.75 46.875Z" fill="#09CC66"/>
</g>
<defs>
<clipPath id="clip0_1_1608">
<rect width="30" height="30" fill="white" transform="translate(25 25)"/>
</clipPath>
</defs>
</svg>
