<svg width="80" height="80" viewBox="0 0 80 80" fill="none" xmlns="http://www.w3.org/2000/svg">
<circle opacity="0.1" cx="40" cy="40" r="40" fill="#09CC66"/>
<g clip-path="url(#clip0_1_1602)">
<path d="M40 33.75C42.6522 33.75 45.1957 34.8036 47.0711 36.6789C48.9464 38.5543 50 41.0978 50 43.75C50 46.4022 48.9464 48.9457 47.0711 50.8211C45.1957 52.6964 42.6522 53.75 40 53.75C37.3478 53.75 34.8043 52.6964 32.9289 50.8211C31.0536 48.9457 30 46.4022 30 43.75C30 41.0978 31.0536 38.5543 32.9289 36.6789C34.8043 34.8036 37.3478 33.75 40 33.75ZM40 36.25C38.0109 36.25 36.1032 37.0402 34.6967 38.4467C33.2902 39.8532 32.5 41.7609 32.5 43.75C32.5 45.7391 33.2902 47.6468 34.6967 49.0533C36.1032 50.4598 38.0109 51.25 40 51.25C41.9891 51.25 43.8968 50.4598 45.3033 49.0533C46.7098 47.6468 47.5 45.7391 47.5 43.75C47.5 41.7609 46.7098 39.8532 45.3033 38.4467C43.8968 37.0402 41.9891 36.25 40 36.25ZM40 38.125L41.6537 41.475L45.35 42.0125L42.675 44.6187L43.3062 48.3012L40 46.5625L36.6937 48.3L37.325 44.6187L34.65 42.0112L38.3462 41.4737L40 38.125ZM47.5 27.5V31.25L45.7962 32.6725C44.3824 31.9307 42.8388 31.4685 41.25 31.3112V27.5H47.5ZM38.75 27.4987V31.3112C37.1617 31.4683 35.6185 31.9301 34.205 32.6712L32.5 31.25V27.5L38.75 27.4987Z" fill="#09CC66"/>
</g>
<defs>
<clipPath id="clip0_1_1602">
<rect width="30" height="30" fill="white" transform="translate(25 25)"/>
</clipPath>
</defs>
</svg>
