<svg width="80" height="80" viewBox="0 0 80 80" fill="none" xmlns="http://www.w3.org/2000/svg">
<circle opacity="0.1" cx="40" cy="40" r="40" fill="#09CC66"/>
<g clip-path="url(#clip0_1_1621)">
<path d="M52.5 46.2525C52.4994 47.9619 51.9151 49.6199 50.8438 50.952C49.7724 52.2841 48.2783 53.2104 46.6088 53.5775L45.8113 51.185C46.5415 51.0647 47.2361 50.7839 47.8447 50.3629C48.4534 49.9418 48.9611 49.3909 49.3312 48.75H46.25C45.587 48.75 44.9511 48.4866 44.4822 48.0178C44.0134 47.5489 43.75 46.913 43.75 46.25V41.25C43.75 40.587 44.0134 39.9511 44.4822 39.4822C44.9511 39.0134 45.587 38.75 46.25 38.75H49.9225C49.6175 36.3336 48.4411 34.1116 46.6143 32.5008C44.7874 30.8901 42.4356 30.0013 40 30.0013C37.5644 30.0013 35.2126 30.8901 33.3857 32.5008C31.5588 34.1116 30.3825 36.3336 30.0775 38.75H33.75C34.413 38.75 35.0489 39.0134 35.5178 39.4822C35.9866 39.9511 36.25 40.587 36.25 41.25V46.25C36.25 46.913 35.9866 47.5489 35.5178 48.0178C35.0489 48.4866 34.413 48.75 33.75 48.75H30C29.337 48.75 28.7011 48.4866 28.2322 48.0178C27.7634 47.5489 27.5 46.913 27.5 46.25V40C27.5 33.0963 33.0963 27.5 40 27.5C46.9037 27.5 52.5 33.0963 52.5 40V46.2525ZM50 46.25V41.25H46.25V46.25H50ZM30 41.25V46.25H33.75V41.25H30Z" fill="#09CC66"/>
</g>
<defs>
<clipPath id="clip0_1_1621">
<rect width="30" height="30" fill="white" transform="translate(25 25)"/>
</clipPath>
</defs>
</svg>
