<svg width="80" height="80" viewBox="0 0 80 80" fill="none" xmlns="http://www.w3.org/2000/svg">
<circle opacity="0.1" cx="40" cy="40" r="40" fill="#09CC66"/>
<g clip-path="url(#clip0_1_1614)">
<path d="M29.7287 28.5325L40 26.25L50.2712 28.5325C50.5488 28.5942 50.7971 28.7487 50.975 28.9705C51.153 29.1923 51.25 29.4681 51.25 29.7525V42.2362C51.2499 43.4709 50.945 44.6865 50.3624 45.775C49.7797 46.8636 48.9373 47.7914 47.91 48.4762L40 53.75L32.09 48.4762C31.0628 47.7915 30.2206 46.8639 29.6379 45.7756C29.0553 44.6873 28.7503 43.472 28.75 42.2375V29.7525C28.75 29.4681 28.847 29.1923 29.025 28.9705C29.2029 28.7487 29.4512 28.5942 29.7287 28.5325ZM31.25 30.755V42.2362C31.25 43.0593 31.4532 43.8697 31.8416 44.5954C32.2299 45.3211 32.7914 45.9396 33.4763 46.3963L40 50.7463L46.5238 46.3963C47.2084 45.9398 47.7698 45.3214 48.1581 44.5959C48.5465 43.8705 48.7498 43.0604 48.75 42.2375V30.755L40 28.8125L31.25 30.755ZM40 38.75C39.1712 38.75 38.3763 38.4208 37.7903 37.8347C37.2042 37.2487 36.875 36.4538 36.875 35.625C36.875 34.7962 37.2042 34.0013 37.7903 33.4153C38.3763 32.8292 39.1712 32.5 40 32.5C40.8288 32.5 41.6237 32.8292 42.2097 33.4153C42.7958 34.0013 43.125 34.7962 43.125 35.625C43.125 36.4538 42.7958 37.2487 42.2097 37.8347C41.6237 38.4208 40.8288 38.75 40 38.75ZM34.4088 45C34.5603 43.623 35.2146 42.3503 36.2463 41.4259C37.2781 40.5015 38.6147 39.9903 40 39.9903C41.3853 39.9903 42.7219 40.5015 43.7537 41.4259C44.7854 42.3503 45.4397 43.623 45.5912 45H34.4088Z" fill="#09CC66"/>
</g>
<defs>
<clipPath id="clip0_1_1614">
<rect width="30" height="30" fill="white" transform="translate(25 25)"/>
</clipPath>
</defs>
</svg>
