<svg width="188" height="18" viewBox="0 0 188 18" fill="none" xmlns="http://www.w3.org/2000/svg">
<g clip-path="url(#clip0_1_1704)">
<path d="M184.532 9.31199L176.583 14.6115C176.526 14.6491 176.461 14.6706 176.393 14.6739C176.325 14.6771 176.258 14.6619 176.198 14.6299C176.138 14.5979 176.088 14.5502 176.053 14.4921C176.018 14.4339 176 14.3673 176 14.2995V3.70049C176 3.63266 176.018 3.56611 176.053 3.50792C176.088 3.44974 176.138 3.4021 176.198 3.37008C176.258 3.33807 176.325 3.32287 176.393 3.32611C176.461 3.32935 176.526 3.35091 176.583 3.38849L184.532 8.68799C184.583 8.72224 184.625 8.76863 184.655 8.82306C184.684 8.87749 184.699 8.93826 184.699 8.99999C184.699 9.06172 184.684 9.12249 184.655 9.17692C184.625 9.23135 184.583 9.27774 184.532 9.31199Z" fill="black"/>
</g>
<circle cx="5" cy="9" r="5" fill="#E1E1E1"/>
<circle cx="141" cy="9" r="5" fill="#E1E1E1"/>
<circle cx="107" cy="9" r="5" fill="#E1E1E1"/>
<circle cx="73" cy="9" r="5" fill="#E1E1E1"/>
<circle cx="39" cy="9" r="4.5" fill="#F7F7F7" stroke="#1C1C33"/>
<defs>
<clipPath id="clip0_1_1704">
<rect width="18" height="18" fill="white" transform="translate(170)"/>
</clipPath>
</defs>
</svg>
