<svg width="197" height="56" viewBox="0 0 197 56" fill="none" xmlns="http://www.w3.org/2000/svg">
<rect width="197" height="56" rx="4" fill="#BFC8C3"/>
<g clip-path="url(#clip0_1_2011)">
<path d="M97.9999 18C98.2652 18 98.5195 18.1054 98.707 18.2929C98.8946 18.4804 98.9999 18.7348 98.9999 19V22C98.9999 22.2652 98.8946 22.5196 98.707 22.7071C98.5195 22.8946 98.2652 23 97.9999 23C97.7347 23 97.4804 22.8946 97.2928 22.7071C97.1053 22.5196 96.9999 22.2652 96.9999 22V19C96.9999 18.7348 97.1053 18.4804 97.2928 18.2929C97.4804 18.1054 97.7347 18 97.9999 18ZM97.9999 33C98.2652 33 98.5195 33.1054 98.707 33.2929C98.8946 33.4804 98.9999 33.7348 98.9999 34V37C98.9999 37.2652 98.8946 37.5196 98.707 37.7071C98.5195 37.8946 98.2652 38 97.9999 38C97.7347 38 97.4804 37.8946 97.2928 37.7071C97.1053 37.5196 96.9999 37.2652 96.9999 37V34C96.9999 33.7348 97.1053 33.4804 97.2928 33.2929C97.4804 33.1054 97.7347 33 97.9999 33ZM106.66 23C106.793 23.2297 106.828 23.5026 106.76 23.7588C106.691 24.015 106.524 24.2334 106.294 24.366L103.696 25.866C103.582 25.9327 103.456 25.9762 103.326 25.9941C103.195 26.012 103.062 26.0038 102.935 25.9701C102.807 25.9364 102.688 25.8778 102.583 25.7977C102.478 25.7176 102.39 25.6175 102.324 25.5033C102.258 25.3891 102.216 25.263 102.199 25.1322C102.182 25.0014 102.191 24.8686 102.225 24.7413C102.26 24.614 102.319 24.4949 102.4 24.3906C102.481 24.2864 102.581 24.1992 102.696 24.134L105.294 22.634C105.524 22.5014 105.797 22.4655 106.053 22.5341C106.309 22.6027 106.527 22.7703 106.66 23ZM93.6699 30.5C93.8025 30.7297 93.8385 31.0026 93.7698 31.2588C93.7012 31.515 93.5336 31.7334 93.3039 31.866L90.7059 33.366C90.5922 33.4327 90.4663 33.4762 90.3357 33.4941C90.205 33.512 90.0721 33.5038 89.9446 33.4701C89.8171 33.4364 89.6975 33.3778 89.5928 33.2977C89.488 33.2176 89.4001 33.1175 89.3342 33.0033C89.2682 32.8891 89.2255 32.763 89.2085 32.6322C89.1915 32.5014 89.2006 32.3686 89.2351 32.2413C89.2697 32.114 89.3291 31.9949 89.4099 31.8906C89.4907 31.7864 89.5913 31.6992 89.7059 31.634L92.3039 30.134C92.5336 30.0014 92.8066 29.9655 93.0627 30.0341C93.3189 30.1027 93.5373 30.2703 93.6699 30.5ZM106.66 33C106.527 33.2297 106.309 33.3973 106.053 33.4659C105.797 33.5345 105.524 33.4986 105.294 33.366L102.696 31.866C102.468 31.7324 102.302 31.5142 102.235 31.2589C102.167 31.0036 102.204 30.732 102.336 30.5033C102.468 30.2746 102.685 30.1074 102.94 30.0383C103.195 29.9691 103.466 30.0035 103.696 30.134L106.294 31.634C106.524 31.7666 106.691 31.985 106.76 32.2412C106.828 32.4974 106.793 32.7703 106.66 33ZM93.6699 25.5C93.5373 25.7297 93.3189 25.8973 93.0627 25.9659C92.8066 26.0345 92.5336 25.9986 92.3039 25.866L89.7059 24.366C89.5913 24.3008 89.4907 24.2136 89.4099 24.1094C89.3291 24.0051 89.2697 23.886 89.2351 23.7587C89.2006 23.6314 89.1915 23.4986 89.2085 23.3678C89.2255 23.237 89.2682 23.1109 89.3342 22.9967C89.4001 22.8825 89.488 22.7824 89.5928 22.7023C89.6975 22.6222 89.8171 22.5636 89.9446 22.5299C90.0721 22.4962 90.205 22.488 90.3357 22.5059C90.4663 22.5238 90.5922 22.5673 90.7059 22.634L93.3039 24.134C93.5336 24.2666 93.7012 24.485 93.7698 24.7412C93.8385 24.9974 93.8025 25.2703 93.6699 25.5Z" fill="white"/>
</g>
<defs>
<clipPath id="clip0_1_2011">
<rect width="24" height="24" fill="white" transform="translate(86 16)"/>
</clipPath>
</defs>
</svg>
