<svg width="40" height="40" viewBox="0 0 40 40" fill="none" xmlns="http://www.w3.org/2000/svg">
<circle cx="20" cy="20" r="20" fill="#F7F7F7"/>
<g clip-path="url(#clip0_1_1739)">
<path d="M13.3334 15.3449L10.6309 12.6433L11.81 11.4641L14.5117 14.1666H27.2134C27.3433 14.1666 27.4713 14.197 27.5874 14.2553C27.7035 14.3135 27.8043 14.3982 27.8819 14.5024C27.9594 14.6066 28.0116 14.7274 28.0341 14.8554C28.0566 14.9833 28.049 15.1147 28.0117 15.2391L26.0117 21.9058C25.9602 22.0775 25.8548 22.2281 25.711 22.3351C25.5671 22.4422 25.3926 22.5 25.2134 22.4999H15V24.1666H24.1667V25.8333H14.1667C13.9457 25.8333 13.7337 25.7455 13.5774 25.5892C13.4212 25.4329 13.3334 25.221 13.3334 24.9999V15.3449ZM15 15.8333V20.8333H24.5934L26.0934 15.8333H15ZM14.5834 29.1666C14.2518 29.1666 13.9339 29.0349 13.6995 28.8005C13.4651 28.5661 13.3334 28.2481 13.3334 27.9166C13.3334 27.5851 13.4651 27.2671 13.6995 27.0327C13.9339 26.7983 14.2518 26.6666 14.5834 26.6666C14.9149 26.6666 15.2328 26.7983 15.4672 27.0327C15.7017 27.2671 15.8334 27.5851 15.8334 27.9166C15.8334 28.2481 15.7017 28.5661 15.4672 28.8005C15.2328 29.0349 14.9149 29.1666 14.5834 29.1666ZM24.5834 29.1666C24.2518 29.1666 23.9339 29.0349 23.6995 28.8005C23.4651 28.5661 23.3334 28.2481 23.3334 27.9166C23.3334 27.5851 23.4651 27.2671 23.6995 27.0327C23.9339 26.7983 24.2518 26.6666 24.5834 26.6666C24.9149 26.6666 25.2328 26.7983 25.4672 27.0327C25.7017 27.2671 25.8334 27.5851 25.8334 27.9166C25.8334 28.2481 25.7017 28.5661 25.4672 28.8005C25.2328 29.0349 24.9149 29.1666 24.5834 29.1666Z" fill="#1C1C33"/>
</g>
<defs>
<clipPath id="clip0_1_1739">
<rect width="20" height="20" fill="white" transform="translate(10 10)"/>
</clipPath>
</defs>
</svg>
