<svg width="40" height="40" viewBox="0 0 40 40" fill="none" xmlns="http://www.w3.org/2000/svg">
<circle cx="20" cy="20" r="20" fill="#F7F7F7"/>
<g clip-path="url(#clip0_1_1734)">
<path d="M13.3337 22.5H15.0003V26.6666H25.0003V13.3333H15.0003V17.5H13.3337V12.5C13.3337 12.2789 13.4215 12.067 13.5777 11.9107C13.734 11.7544 13.946 11.6666 14.167 11.6666H25.8337C26.0547 11.6666 26.2666 11.7544 26.4229 11.9107C26.5792 12.067 26.667 12.2789 26.667 12.5V27.5C26.667 27.721 26.5792 27.9329 26.4229 28.0892C26.2666 28.2455 26.0547 28.3333 25.8337 28.3333H14.167C13.946 28.3333 13.734 28.2455 13.5777 28.0892C13.4215 27.9329 13.3337 27.721 13.3337 27.5V22.5ZM18.3337 19.1666V16.6666L22.5003 20L18.3337 23.3333V20.8333H11.667V19.1666H18.3337Z" fill="#1C1C33"/>
</g>
<defs>
<clipPath id="clip0_1_1734">
<rect width="20" height="20" fill="white" transform="translate(10 10)"/>
</clipPath>
</defs>
</svg>
