<svg width="40" height="40" viewBox="0 0 40 40" fill="none" xmlns="http://www.w3.org/2000/svg">
<circle cx="20" cy="20" r="20" fill="#F7F7F7"/>
<g clip-path="url(#clip0_1_1729)">
<path d="M25.0262 23.8475L28.5953 27.4158L27.4162 28.595L23.8478 25.0258C22.5201 26.0901 20.8687 26.669 19.167 26.6666C15.027 26.6666 11.667 23.3066 11.667 19.1666C11.667 15.0266 15.027 11.6666 19.167 11.6666C23.307 11.6666 26.667 15.0266 26.667 19.1666C26.6694 20.8683 26.0905 22.5197 25.0262 23.8475ZM23.3545 23.2291C24.4121 22.1415 25.0027 20.6837 25.0003 19.1666C25.0003 15.9433 22.3895 13.3333 19.167 13.3333C15.9437 13.3333 13.3337 15.9433 13.3337 19.1666C13.3337 22.3891 15.9437 25 19.167 25C20.684 25.0023 22.1419 24.4117 23.2295 23.3541L23.3545 23.2291Z" fill="#1C1C33"/>
</g>
<defs>
<clipPath id="clip0_1_1729">
<rect width="20" height="20" fill="white" transform="translate(10 10)"/>
</clipPath>
</defs>
</svg>
